<svg xmlns="http://www.w3.org/2000/svg" viewBox="0 0 192 192">
  <rect width="192" height="192" rx="38" fill="#ffffff"/>
  <path fill="#0A0A0A" d="M96 17c-21 0-32 20-32 38 0 20 10 38 21 55-12 14-30 33-30 63 0 33 26 61 58 61 25 0 41-16 41-37 0-20-13-35-31-35-14 0-25 10-25 23 0 11 8 19 18 19 3 0 7-1 9-2-2 8-11 14-21 14-20 0-35-17-35-39 0-21 15-38 26-51 5 8 10 17 14 28 6 16 8 31 8 47 0 17-4 28-12 37-6 6-12 8-17 8-4 0-7-2-7-4 0-1 1-2 3-4 4-3 6-8 6-13 0-8-7-14-14-14-9 0-15 7-15 16 0 14 13 25 30 25 26 0 45-22 45-58 0-21-4-41-12-60-6-14-12-26-19-37 8-13 14-26 14-42 0-21-13-40-32-40Zm0 13c10 0 17 12 17 27 0 12-4 22-11 33-6-11-12-22-12-36 0-14 4-24 6-24Z"/>
</svg>
